HIERARCHY
ROOT Hips
{
	OFFSET 0.00000 0.00000 0.00000
	CHANNELS 6 Xposition Yposition Zposition Yrotation Zrotation Xrotation 
	JOINT Lumbar
	{
		OFFSET 0 0 0
		CHANNELS 3 Zrotation Xrotation Yrotation
		JOINT Neck
		{
			OFFSET 0.00 0.2701 0.00
			CHANNELS 3 Zrotation Xrotation Yrotation
			End Site
			{
				OFFSET 0.00 0.1379 0.00
			}
		}
		JOINT RightShoulder
		{
			OFFSET 0.0119 0.2289 0.1181
			CHANNELS 3 Zrotation Xrotation Yrotation
			JOINT RightElbow
			{
				OFFSET 0.00 -0.1475 0.00
				CHANNELS 2 Zrotation Yrotation
				JOINT RightWrist
				{
					OFFSET 0.00 -0.1605 0.00
					CHANNELS 2 Zrotation Xrotation
					End Site
					{
						OFFSET 0.0040 -0.1068 0.0006
					}
				}
			}
		}
		JOINT LeftShoulder
		{
			OFFSET 0.0119 0.2289 -0.1181
			CHANNELS 3 Zrotation Xrotation Yrotation
			JOINT LeftElbow
			{
				OFFSET 0.00 -0.1475 0.00
				CHANNELS 2 Zrotation Yrotation
				JOINT LeftWrist
				{
					OFFSET 0.00 -0.1605 0.00
					CHANNELS 2 Zrotation Xrotation
					End Site
					{
						OFFSET 0.0040 -0.1068 -0.0006
					}
				}
			}
		}
	}
	JOINT RightHip
	{
		OFFSET 0.0316 -0.0424 0.0458
		CHANNELS 3 Zrotation Xrotation Yrotation
		JOINT RightKnee
		{
			OFFSET 0.00 -0.2438 0.00
			CHANNELS 1 Zrotation
			JOINT RightAnkle
			{
				OFFSET 0.00 -0.2449 0.00
				CHANNELS 3 Zrotation Xrotation Yrotation
				End Site
				{
					OFFSET 0.1237 -0.0542 0.0051
				}
			}
		}
	}
	JOINT LeftHip
	{
		OFFSET 0.0316 -0.0424 -0.0458
		CHANNELS 3 Zrotation Xrotation Yrotation
		JOINT LeftKnee
		{
			OFFSET 0.00 -0.2438 0.00
			CHANNELS 1 Zrotation
			JOINT LeftAnkle
			{
				OFFSET 0.00 -0.2449 0.00
				CHANNELS 3 Zrotation Xrotation Yrotation
				End Site
				{
					OFFSET 0.1237 -0.0542 -0.0051
				}
			}
		}
	}
}
MOTION
Frames: 22
Frame Time: 0.02
0.00048 -0.00087 0.00094 -174.18086 -28.80613 1.76221 43.79866 -1.29902 -8.03997 -10.97199 4.92288 -0.37379 -19.59943 -3.63773 -17.96874 23.68076 136.72272 18.27993 7.76758 -21.135 7.11391 -3.57427 27.82448 -108.46741 16.43759 -1.551 28.83034 -1.6938 -4.40692 -19.97136 -6.06388 -3.66069 -2.54689 32.37843 3.41036 -2.25778 -24.39273 -6.31203 2.55842 1.9538
0.00022 -0.00064 0.00052 -173.9915 -28.81061 1.83656 43.87316 -1.34437 -8.03617 -10.99288 4.8338 -0.37428 -19.72632 -3.6197 -17.82089 23.90337 136.71587 18.29703 7.74791 -21.22854 7.14047 -3.52346 28.13163 -108.31764 16.34171 -1.54334 28.81077 -1.6934 -4.32346 -19.95326 -6.08857 -3.69491 -2.56511 32.4007 3.45117 -2.17533 -24.37394 -6.33693 2.51327 1.92705
-4e-05 -0.0004 0.00011 -173.80184 -28.81489 1.91084 43.94744 -1.38962 -8.03224 -11.01387 4.74455 -0.37476 -19.85357 -3.60246 -17.67022 24.12589 136.69935 18.3117 7.72674 -21.3218 7.16701 -3.47295 28.4383 -108.16798 16.24598 -1.5357 28.79109 -1.693 -4.24039 -19.93524 -6.11324 -3.72911 -2.58333 32.42295 3.49183 -2.09308 -24.35523 -6.36179 2.46817 1.90033
-0.0003 -0.00017 -0.00031 -173.61299 -28.81934 1.98498 44.02172 -1.43484 -8.02845 -11.03471 4.65569 -0.37525 -19.98017 -3.58465 -17.52216 24.34793 136.69062 18.32827 7.70682 -21.41506 7.1935 -3.42234 28.74459 -108.0186 16.15036 -1.52806 28.77155 -1.6926 -4.15721 -19.91719 -6.13786 -3.76323 -2.6015 32.44515 3.53252 -2.01086 -24.3365 -6.38662 2.42315 1.87366
-0.00056 6e-05 -0.00073 -173.42457 -28.82402 2.05915 44.09622 -1.48014 -8.02479 -11.05542 4.5671 -0.37573 -20.10618 -3.56569 -17.37852 24.56981 136.69612 18.3484 7.68915 -21.50856 7.21998 -3.37134 29.05118 -107.86931 16.05466 -1.52041 28.75217 -1.69219 -4.07358 -19.89905 -6.16249 -3.79736 -2.61966 32.4674 3.57334 -1.92849 -24.31768 -6.41146 2.3781 1.84697
-0.00082 0.00029 -0.00114 -173.2322 -28.82746 2.13368 44.17 -1.5253 -8.0203 -11.07698 4.47646 -0.37622 -20.23603 -3.552 -17.21333 24.7936 136.63393 18.35177 7.66072 -21.60127 7.24665 -3.32184 29.35796 -107.71891 15.95886 -1.51277 28.73186 -1.6918 -3.99172 -19.8813 -6.18723 -3.8317 -2.638 32.48965 3.61366 -1.84653 -24.29921 -6.43638 2.33289 1.82018
-0.00108 0.00052 -0.00156 -173.0485 -28.83344 2.20736 44.24518 -1.57069 -8.0176 -11.09675 4.39017 -0.37669 -20.3579 -3.52797 -17.09062 25.01342 136.70537 18.38817 7.65354 -21.69559 7.27288 -3.26947 29.66406 -107.57078 15.86333 -1.50512 28.71346 -1.6914 -3.9064 -19.86277 -6.21169 -3.86555 -2.65594 32.51179 3.65499 -1.76376 -24.28004 -6.46109 2.28809 1.79365
-0.00134 0.00076 -0.00197 -172.85588 -28.83699 2.28189 44.31902 -1.61586 -8.01301 -11.11831 4.29963 -0.37719 -20.48734 -3.51303 -16.93068 25.2367 136.65839 18.39535 7.62752 -21.7882 7.29957 -3.21961 29.97072 -107.42076 15.76764 -1.49748 28.69326 -1.69097 -3.82423 -19.845 -6.23649 -3.89993 -2.67429 32.5342 3.6953 -1.68188 -24.26156 -6.48604 2.24283 1.76684
-0.00159 0.00099 -0.00238 -172.65582 -28.8379 2.35724 44.39145 -1.66084 -8.00704 -11.14153 4.20472 -0.37768 -20.62538 -3.51112 -16.71688 25.4652 136.4458 18.36147 7.57518 -21.87966 7.32667 -3.17336 30.27855 -107.26753 15.67134 -1.48988 28.671 -1.69064 -3.74605 -19.82796 -6.26141 -3.93467 -2.69299 32.55626 3.73472 -1.60046 -24.24376 -6.51111 2.19731 1.73982
-0.00189 0.00123 -0.00283 -172.50895 -28.855 2.42723 44.47266 -1.70713 -8.01181 -11.15359 4.13744 -0.37808 -20.71201 -3.44 -16.78778 25.66669 137.12318 18.54775 7.66438 -21.98056 7.35093 -3.10794 30.58114 -107.13002 15.57727 -1.48211 28.66102 -1.69015 -3.64535 -19.80613 -6.28475 -3.96645 -2.70919 32.57829 3.78036 -1.5145 -24.22155 -6.53499 2.1542 1.71438
-0.00208 0.00144 -0.00319 -172.24333 -28.83733 2.50889 44.53491 -1.7505 -7.99213 -11.19022 4.01032 -0.37878 -20.90824 -3.51114 -16.2745 25.92312 135.96415 18.28005 7.46143 -22.05975 7.38147 -3.08194 30.89377 -106.96117 15.47935 -1.47464 28.62486 -1.68975 -3.59186 -19.79479 -6.31198 -4.00504 -2.73099 32.60169 3.81217 -1.43933 -24.20894 -6.56168 2.10544 1.68539
-0.00203 0.00159 -0.00332 -171.7004 -28.72851 2.6201 44.54792 -1.78695 -7.91891 -11.28621 3.72978 -0.37936 -21.39862 -4.00714 -14.00786 26.34826 129.37817 16.66818 6.39592 -22.09297 7.42715 -3.17341 31.24263 -106.69 15.36387 -1.46836 28.51866 -1.69165 -3.67222 -19.80948 -6.34545 -4.05777 -2.76581 32.61894 3.81092 -1.38598 -24.22066 -6.59367 2.04585 1.64839
-0.00187 0.00171 -0.00337 -171.02825 -28.58414 2.74343 44.54107 -1.82012 -7.81826 -11.40811 3.3871 -0.3804 -21.9999 -4.6392 -11.18402 26.82479 121.02306 14.61948 5.04882 -22.1016 7.4796 -3.30259 31.59993 -106.3902 15.24591 -1.46228 28.38616 -1.69328 -3.79953 -19.83523 -6.38374 -4.11814 -2.80668 32.63992 3.79449 -1.34618 -24.24247 -6.62885 1.97987 1.60756
-0.00173 0.00184 -0.00345 -170.38476 -28.45304 2.86292 44.54188 -1.8543 -7.72175 -11.52371 3.06586 -0.38188 -22.55523 -5.187 -8.71128 27.2667 113.72661 12.83388 3.86972 -22.11294 7.53022 -3.40865 31.94781 -106.11441 15.13355 -1.45589 28.26409 -1.69369 -3.90209 -19.85772 -6.42258 -4.17803 -2.84632 32.66499 3.7823 -1.30364 -24.26089 -6.66423 1.91358 1.56726
-0.00171 0.002 -0.00356 -169.87193 -28.33339 2.97568 44.54966 -1.89114 -7.66181 -11.61729 2.77338 -0.38069 -23.09358 -5.83144 -5.81774 27.75818 105.33857 10.77144 2.51902 -22.16108 7.57526 -3.54067 32.31952 -105.79288 15.00192 -1.45051 28.14703 -1.69969 -4.01774 -19.87275 -6.44942 -4.22545 -2.87959 32.66348 3.78288 -1.24145 -24.27398 -6.69293 1.86023 1.5318
-0.0014 0.00207 -0.00359 -169.05134 -28.18228 3.10499 44.53665 -1.92085 -7.51734 -11.76159 2.40604 -0.38509 -23.69161 -6.30474 -3.67667 28.1562 98.82095 9.18625 1.46153 -22.12537 7.63395 -3.62675 32.64327 -105.55888 14.9103 -1.44297 28.015 -1.69405 -4.11901 -19.90599 -6.50292 -4.30047 -2.92752 32.72094 3.75128 -1.22995 -24.30094 -6.73596 1.77916 1.48567
-0.0004 0.00194 -0.00341 -167.45519 -27.94616 3.27975 44.48416 -1.9385 -7.16179 -12.05041 1.84964 -0.4055 -24.44327 -6.29181 -3.67611 28.30351 97.75605 8.9877 1.26005 -21.87582 7.72539 -3.58409 32.83504 -105.58259 14.92579 -1.43016 27.83396 -1.65598 -4.15476 -19.98631 -6.62423 -4.4512 -3.01463 32.91728 3.65233 -1.29466 -24.36069 -6.82073 1.61673 1.40823
0.0009 0.00172 -0.00315 -165.54589 -27.68092 3.47019 44.40875 -1.94768 -6.71898 -12.38727 1.21981 -0.43139 -25.24781 -6.09985 -4.46074 28.35103 98.65134 9.28877 1.36605 -21.54061 7.83118 -3.49293 32.9777 -105.69406 14.9823 -1.41506 27.64157 -1.60645 -4.17771 -20.08474 -6.773 -4.62909 -3.1162 33.17731 3.51873 -1.41804 -24.43469 -6.91935 1.42772 1.32066
0.00211 0.00154 -0.00292 -163.75196 -27.43343 3.65177 44.33559 -1.9564 -6.30618 -12.69512 0.62173 -0.4543 -26.01803 -5.9749 -4.94107 28.43148 98.7587 9.39004 1.34822 -21.23685 7.93228 -3.41859 33.14127 -105.75905 15.02267 -1.40049 27.46344 -1.56214 -4.21512 -20.1751 -6.91227 -4.79372 -3.21107 33.42305 3.38869 -1.55821 -24.5041 -7.00951 1.25518 1.23963
0.00314 0.00136 -0.00271 -162.06708 -27.16546 3.84136 44.29726 -1.98372 -5.93408 -13.0345 0.0275 -0.47924 -26.83686 -5.9087 -5.20176 28.56716 98.41457 9.37333 1.26006 -20.96354 8.02493 -3.36585 33.31134 -105.84951 15.05262 -1.38796 27.24531 -1.51697 -4.2151 -20.26484 -7.03929 -4.96284 -3.30685 33.60634 3.30747 -1.52837 -24.56566 -7.10845 1.06426 1.15049
0.00462 0.00116 -0.00245 -160.08264 -26.9339 4.01746 44.17989 -1.96967 -5.45569 -13.31889 -0.59032 -0.50129 -27.5639 -5.68414 -6.08655 28.56218 99.44333 9.71121 1.38672 -20.6071 8.13967 -3.25832 33.45578 -105.90985 15.11376 -1.3708 27.10897 -1.47186 -4.29264 -20.36043 -7.19806 -5.12855 -3.40387 33.93566 3.11918 -1.85014 -24.64714 -7.19296 0.90492 1.07566
0.00727 0.00096 -0.00205 -157.34612 -26.80852 4.15531 43.86123 -1.84912 -4.71605 -13.44309 -1.26368 -0.5136 -28.03764 -4.99386 -8.74272 28.20449 104.28425 11.04374 2.10624 -20.04117 8.30195 -2.99123 33.54436 -105.85616 15.25525 -1.34069 27.19438 -1.42104 -4.55832 -20.46433 -7.44004 -5.28148 -3.50271 34.64532 2.62109 -3.26918 -24.77813 -7.22836 0.84456 1.04537
